<svg xmlns="http://www.w3.org/2000/svg" viewBox="0 0 170.024 170.024" preserveAspectRatio="none"><path fill="#000" d="M167.524,170.024h-9.758c-1.381,0-2.5-1.119-2.5-2.5c0-4.223-3.436-7.658-7.658-7.658s-7.657,3.436-7.657,7.658c0,1.381-1.119,2.5-2.5,2.5H126.98c-1.381,0-2.5-1.119-2.5-2.5c0-4.223-3.436-7.658-7.658-7.658s-7.657,3.436-7.657,7.658c0,1.381-1.119,2.5-2.5,2.5H96.194c-1.381,0-2.5-1.119-2.5-2.5c0-4.223-3.435-7.658-7.657-7.658s-7.658,3.436-7.658,7.658c0,1.381-1.119,2.5-2.5,2.5h-10.47c-1.381,0-2.5-1.119-2.5-2.5c0-4.223-3.436-7.658-7.658-7.658s-7.657,3.436-7.657,7.658c0,1.381-1.119,2.5-2.5,2.5H34.623c-1.381,0-2.5-1.119-2.5-2.5c0-4.223-3.435-7.658-7.657-7.658s-7.658,3.436-7.658,7.658c0,1.381-1.119,2.5-2.5,2.5H2.5c-1.381,0-2.5-1.119-2.5-2.5v-10.783c0-1.381,1.119-2.5,2.5-2.5c4.223,0,7.657-3.435,7.657-7.657s-3.435-7.658-7.657-7.658c-1.381,0-2.5-1.119-2.5-2.5v-10.47c0-1.381,1.119-2.5,2.5-2.5c4.223,0,7.657-3.436,7.657-7.658s-3.435-7.657-7.657-7.657c-1.381,0-2.5-1.119-2.5-2.5V95.17c0-1.381,1.119-2.5,2.5-2.5c4.223,0,7.657-3.436,7.657-7.658S6.723,77.354,2.5,77.354c-1.381,0-2.5-1.119-2.5-2.5V64.384c0-1.381,1.119-2.5,2.5-2.5c4.223,0,7.657-3.435,7.657-7.657S6.723,46.568,2.5,46.568c-1.381,0-2.5-1.119-2.5-2.5v-10.47c0-1.381,1.119-2.5,2.5-2.5c4.223,0,7.657-3.436,7.657-7.658S6.723,15.783,2.5,15.783c-1.381,0-2.5-1.119-2.5-2.5V2.5C0,1.119,1.12,0,2.5,0h11.807c1.381,0,2.5,1.119,2.5,2.5c0,4.223,3.436,7.658,7.658,7.658s7.657-3.436,7.657-7.658c0-1.381,1.119-2.5,2.5-2.5h10.471c1.381,0,2.5,1.119,2.5,2.5c0,4.223,3.435,7.658,7.657,7.658s7.658-3.436,7.658-7.658c0-1.381,1.119-2.5,2.5-2.5h10.47c1.381,0,2.5,1.119,2.5,2.5c0,4.223,3.436,7.658,7.658,7.658s7.657-3.436,7.657-7.658c0-1.381,1.119-2.5,2.5-2.5h10.471c1.381,0,2.5,1.119,2.5,2.5c0,4.223,3.435,7.658,7.657,7.658s7.658-3.436,7.658-7.658c0-1.381,1.119-2.5,2.5-2.5h10.471c1.381,0,2.5,1.119,2.5,2.5c0,4.223,3.435,7.658,7.657,7.658s7.658-3.436,7.658-7.658c0-1.381,1.119-2.5,2.5-2.5h9.758c1.381,0,2.5,1.119,2.5,2.5v10.783c0,1.381-1.119,2.5-2.5,2.5c-4.223,0-7.657,3.435-7.657,7.657s3.435,7.658,7.657,7.658c1.381,0,2.5,1.119,2.5,2.5v10.47c0,1.381-1.119,2.5-2.5,2.5c-4.223,0-7.657,3.436-7.657,7.658s3.435,7.657,7.657,7.657c1.381,0,2.5,1.119,2.5,2.5v10.471c0,1.381-1.119,2.5-2.5,2.5c-4.223,0-7.657,3.435-7.657,7.657s3.435,7.658,7.657,7.658c1.381,0,2.5,1.119,2.5,2.5v10.471c0,1.381-1.119,2.5-2.5,2.5c-4.223,0-7.657,3.435-7.657,7.657s3.435,7.658,7.657,7.658c1.381,0,2.5,1.119,2.5,2.5v10.47c0,1.381-1.119,2.5-2.5,2.5c-4.223,0-7.657,3.436-7.657,7.658s3.435,7.657,7.657,7.657c1.381,0,2.5,1.119,2.5,2.5v10.783C170.024,168.905,168.905,170.024,167.524,170.024z "/></svg>
